<?xml version="1.0" encoding="utf-8"?>
<!-- Generator: Adobe Illustrator 20.1.0, SVG Export Plug-In . SVG Version: 6.00 Build 0)  -->
<svg version="1.1" id="Calque_1" xmlns="http://www.w3.org/2000/svg" xmlns:xlink="http://www.w3.org/1999/xlink" x="0px" y="0px"
	 viewBox="0 0 455.2 74.6" style="enable-background:new 0 0 455.2 74.6;" xml:space="preserve">
<style type="text/css">
	.st0{fill:#F62425;}
</style>
<path class="st0" d="M42.8,69.5c-5.1,3.5-11,5.5-17.3,5.1C12.6,74.6,2.7,68.7,0,55l6.7-3.5c0,2.7,0.4,5.5,1.6,7.9
	c2,4.3,7.1,9.4,17.7,9.4c2.7,0,5.1-0.4,7.9-1.2c6.7-1.6,11-7.5,11-14.1c0-2.4-0.8-4.7-2-6.7c-2.4-3.9-6.3-5.5-14.1-7.9
	c-5.1-1.2-10.2-2.7-14.9-4.7c-8.6-4.3-12.6-14.9-8.2-24c0.4-0.8,0.8-1.6,1.6-2.4C13,0,24.7,0,26.3,0c10.6-1.2,20.4,5.5,23.6,15.7
	L44,18.8c-0.8-2.4-1.6-4.3-2.7-6.3c-3.5-4.7-9-7.5-14.9-7.1c-4.7,0-9.4,1.6-13,4.7c-2.4,2-3.1,5.1-3.1,8.2c0,2.4,0.8,4.7,2,6.7
	c3.1,3.5,7.9,5.9,12.6,6.7c6.3,2,14.9,3.5,20.4,7.9c4.3,3.5,6.7,8.6,6.3,13.7C51,59.7,47.9,66,42.8,69.5z M82.5,7.9v64.8h-6.7V7.9
	H54.2V2h49.9v5.9H82.5z M204.2,72.6l-40.1-61.3v61.3h-6.3V2h6.3L205,62.4L204.2,2h6.3V73L204.2,72.6z M270.5,64.4
	c-2.4,2.7-5.5,5.1-9,6.3c-4.7,2-9,2-18.5,2H225V2h25.5c7.9,0.4,13.7,1.6,19.2,7.9c6.3,7.5,9.8,17.3,9.4,27.5
	C280,47.1,276.4,56.5,270.5,64.4z M266.2,14.9c-2-2.4-4.3-4.3-7.1-5.5c-4.7-1.6-9.8-2-14.9-1.6h-12.2v58.9h10.2
	c9,0,14.5-0.4,18.5-2.4c2.7-1.6,5.1-3.9,7.1-6.7c3.9-6.3,5.9-13.4,5.5-20.8C273.3,29.4,270.9,21.2,266.2,14.9z M382.8,72.6
	l-21.6-31.4h-16.1v31.4h-6.7V2h30.6c7.1,0,13.4,3.5,16.9,9.4c1.6,3.1,2.7,7.1,2.7,10.6c0.4,7.9-4.3,15.3-11.8,17.7
	c-2.7,0.8-5.5,1.6-8.2,1.6l22.4,31.4H382.8z M380.5,14.1c-3.1-5.5-8.6-5.9-14.1-5.9h-21.2v27.5h21.6c5.1-0.4,10.2-0.4,13.4-5.1
	c1.6-2.4,2.4-5.5,2.4-8.2C382.4,19.2,382.1,16.5,380.5,14.1z M446.4,64.4c-2.4,2.7-5.5,5.1-9,6.3c-4.7,2-9,2-18.5,2h-18.1V2h25.5
	c7.9,0.4,13.7,1.6,19.2,7.9c6.3,7.9,9.8,17.3,9.4,27.5C455.9,47.1,452.3,56.5,446.4,64.4z M442.1,14.9c-2-2.4-4.3-4.3-7.1-5.5
	c-4.7-1.6-9.8-2-14.9-1.6H408v58.9h10.2c9,0,14.5-0.4,18.5-2.4c2.7-1.6,5.1-3.9,7.1-6.7c3.9-6.3,5.9-13.4,5.5-20.8
	C449.2,29.4,446.8,21.2,442.1,14.9z M296.5,45.9v5.5h18.5l7.9,21.2h7.1L302.3,1.6h-5.5l3.1,8.6l13,35.3 M138.2,45.9v5.5h-18.5
	l-7.9,21.2h-7.1l27.5-71.1h5.5l-3.1,8.6l-13,35.3"/>
</svg>
