<?xml version="1.0" encoding="utf-8"?><svg width="150" height="128" viewBox="0 0 150 128" xmlns="http://www.w3.org/2000/svg" xmlns:xlink="http://www.w3.org/1999/xlink"><svg id="arrow" viewBox="-2 -2 9 19" width="9" height="19" x="89" y="96" xmlns="http://www.w3.org/2000/svg"><style>.ast0{fill:#f62425}</style><path class="ast0" d="M2 0h1v15H2V0zM1 12h1v2H1v-2zm-1 0h1v1H0v-1zm3 0h1v2H3v-2zm1 0h1v1H4v-1z"/></svg><svg id="facebook" viewBox="-2 -2 11 20" width="11" height="20" x="135" y="53" xmlns="http://www.w3.org/2000/svg"><style>.bst0{fill:#f62425}</style><path class="bst0" d="M6.7 8H4.6v8H1.5V8H0V5.2h1.5V3.4C1.3 1.7 2.5.2 4.2 0H7v2.8H5.3c-.4-.1-.7.2-.7.6v1.8H7L6.7 8z"/></svg><svg id="hand" viewBox="-2 -2 60 26" width="60" height="26" x="75" y="53" xmlns="http://www.w3.org/2000/svg"><style>.cst0{fill:#f62425}</style><path class="cst0" d="M53 13v-2h-4v-1h4V8l3 2v1l-3 2zm-16.6 2.3v-4h1.3v4h-1.3zm-1.3 3.4v-3.3h1.3v3.3h-1.3zM33.8 22v-3.3h1.3V22h-1.3zm3.9-16.7H39v6h-1.3v-6zm-2.6 1.4V10h-1.3V2.7h1.3v2.7h1.3v1.3h-1.3zm-4.5 2h-1.3V1.3h4.5v1.3h-3.2v6.1zm-5.2 0V5.3h-1.3V2.7h1.3V1.3h1.3v7.3h-1.3v.1zm-3.2 0h-1.3V5.3h1.3v3.4zm0 0h1.3v4h-1.3v-1.3h-1.3V10h1.3V8.7zM18.3 10V8.7h2.6V10h-2.6zm1.3 4h-1.3v-1.3h1.3V14zm1.3 2.7h-1.3V14h1.3v2.7zm1.3 1.3h-1.3v-1.3h1.3V18zm1.3 1.3h-1.3V18h1.3v1.3zm1.3 2.7h-1.3v-2.7h1.3V22zM17 12.7V10h1.3v2.7H17zm2.6-7.4V2.7h1.3v2.7l-1.3-.1zm1.3-4h3.2v1.3h-3.2V1.3zM26.7 0h2.6v1.3h-2.6V0zm9.7 4h1.3v1.3h-1.3V4zM3 13l-3-2v-1l3-2v2h4v1H3v2z"/></svg><svg id="instagram" viewBox="-2 -2 18 18" width="18" height="18" x="98" y="96" xmlns="http://www.w3.org/2000/svg"><style>.dst0{fill:#f62425}</style><path class="dst0" d="M12.8 0H1.2C.6-.1 0 .4 0 1v11.7c0 .7.4 1.3 1 1.3H12.8c.6 0 1.2-.4 1.2-1.1V1.2c0-.6-.4-1.2-1.1-1.2h-.1zm.2 1v2h-2V1h2zM1 13V6h2c0-2.2 1.8-4 4-4s4 1.8 4 4h2v7H1zM7 3C5.3 3 4 4.3 4 6s1.3 3 3 3 3-1.3 3-3-1.3-3-3-3zm0 5c-1.1 0-2-.9-2-2s.9-2 2-2 2 .9 2 2-.9 2-2 2z"/></svg><svg id="logo" viewBox="-2 -2 150 53" width="150" height="53" xmlns="http://www.w3.org/2000/svg"><style>.est0{fill:#f62425}.est1{fill:#f4f4f4}</style><path class="est0" d="M0 0h146v49H0z"/><path class="est1" d="M25.9 32.7c-1.3.9-2.8 1.4-4.4 1.3-3.3 0-5.8-1.5-6.5-5l1.7-.9c0 .7.1 1.4.4 2 .5 1.1 1.8 2.4 4.5 2.4.7 0 1.3-.1 2-.3 1.7-.4 2.8-1.9 2.8-3.6 0-.6-.2-1.2-.5-1.7-.6-1-1.6-1.4-3.6-2-1.3-.3-2.6-.7-3.8-1.2-2.2-1.1-3.2-3.8-2.1-6.1.1-.2.2-.4.4-.6 1.5-2 4.5-2 4.9-2 2.7-.3 5.2 1.4 6 4l-1.5.8c-.2-.6-.4-1.1-.7-1.6-.9-1.2-2.3-1.9-3.8-1.8-1.2 0-2.4.4-3.3 1.2-.6.5-.8 1.3-.8 2.1 0 .6.2 1.2.5 1.7.8.9 2 1.5 3.2 1.7 1.6.5 3.8.9 5.2 2 1.1.9 1.7 2.2 1.6 3.5-.1 1.6-.9 3.2-2.2 4.1zM36 17v16.5h-1.7V17h-5.5v-1.5h12.7V17H36zm31 16.5L56.8 17.9v15.6h-1.6v-18h1.6l10.4 15.4-.2-15.4h1.6v18.1l-1.6-.1zm16.9-2.1c-.6.7-1.4 1.3-2.3 1.6-1.2.5-2.3.5-4.7.5h-4.6v-18h6.5c2 .1 3.5.4 4.9 2 1.6 1.9 2.5 4.4 2.4 7 .2 2.5-.7 4.9-2.2 6.9zm-1.1-12.6c-.5-.6-1.1-1.1-1.8-1.4-1.2-.4-2.5-.5-3.8-.4h-3.1v15h2.6c2.3 0 3.7-.1 4.7-.6.7-.4 1.3-1 1.8-1.7 1-1.6 1.5-3.4 1.4-5.3 0-1.9-.6-4-1.8-5.6zm29.7 14.7l-5.5-8h-4.1v8h-1.7v-18H109c1.8 0 3.4.9 4.3 2.4.4.8.7 1.8.7 2.7.1 2-1.1 3.9-3 4.5-.7.2-1.4.4-2.1.4l5.7 8h-2.1zm-.6-14.9c-.8-1.4-2.2-1.5-3.6-1.5h-5.4v7h5.5c1.3-.1 2.6-.1 3.4-1.3.4-.6.6-1.4.6-2.1 0-.8-.1-1.5-.5-2.1zm16.8 12.8c-.6.7-1.4 1.3-2.3 1.6-1.2.5-2.3.5-4.7.5h-4.6v-18h6.5c2 .1 3.5.4 4.9 2 1.6 2 2.5 4.4 2.4 7 .2 2.5-.7 4.9-2.2 6.9zm-1.1-12.6c-.5-.6-1.1-1.1-1.8-1.4-1.2-.4-2.5-.5-3.8-.4h-3.1v15h2.6c2.3 0 3.7-.1 4.7-.6.7-.4 1.3-1 1.8-1.7 1-1.6 1.5-3.4 1.4-5.3 0-1.9-.6-4-1.8-5.6zm-37.1 7.9v1.4h4.7l2 5.4H99l-7-18.1h-1.4l.8 2.2 3.3 9m-44.5.1v1.4h-4.7l-2 5.4h-1.8l7-18.1h1.4l-.8 2.2-3.3 9"/></svg><svg width="13" height="12" viewBox="-2 -2 13 12" id="pause" x="96" y="79" xmlns="http://www.w3.org/2000/svg"><defs><style>.fcls-1{fill:#f9f9f9;fill-rule:evenodd}</style></defs><path class="fcls-1" d="M0 0h3v8H0V0zm6 0h3v8H6V0z"/></svg><svg width="9" height="12" viewBox="-2 -2 9 12" id="play" x="109" y="79" xmlns="http://www.w3.org/2000/svg"><defs><style>.gcls-1{fill:#fff;fill-rule:evenodd}</style></defs><path class="gcls-1" d="M0 0l5 4-5 4V0zm0 0h1v8H0V0zm1 1h1v6H1V1zm1 1h1v4H2V2zm1 1h1v2H3V3z"/></svg><svg id="press-play" viewBox="-2 -2 75 75" width="75" height="75" y="53" xmlns="http://www.w3.org/2000/svg"><style>.hst0{fill:#f62425}</style><path class="hst0" d="M-643 449h-1v-1h-1v-1h-1v-1h-1v-1h-1v-1h-1v-1h-1v-1h-1v17h1v-1h1v-1h1v-1h1v-1h1v-1h1v-1h1v-1h1v-1h1v-1h-1v-1zm-5.5-34c-19.6 0-35.5 15.9-35.5 35.5s15.9 35.5 35.5 35.5 35.5-15.9 35.5-35.5-15.9-35.5-35.5-35.5zm0 68c-17.9 0-32.5-14.6-32.5-32.5s14.6-32.5 32.5-32.5 32.5 14.6 32.5 32.5-14.6 32.5-32.5 32.5z"/></svg><svg id="tumblr" viewBox="-2 -2 14 20" width="14" height="20" x="75" y="96" xmlns="http://www.w3.org/2000/svg"><style>.ist0{fill:#f62425}</style><path class="ist0" d="M9.1 12.8c-.4.2-.9.3-1.4.3-.8.1-1.5-.4-1.7-1.2V6.5h3.5V4.1H6.1V0H3.5l-.1.1c-.1 2-1.5 3.7-3.4 4.3v2.1h1.8v5.2C1.8 13.5 3.2 16 7 16c1.1 0 2.1-.3 3-.9l-.9-2.3"/></svg><svg id="twitter" viewBox="-2 -2 21 17" width="21" height="17" x="75" y="79" xmlns="http://www.w3.org/2000/svg"><style>.jst0{fill:#f62425}</style><path class="jst0" d="M8.4 4c-.1-.2-.1-.5-.1-.7 0-.7.3-1.5.8-2C9.7.4 10.7 0 11.8 0c.9 0 1.9.4 2.5 1 .8-.1 1.5-.4 2.2-.8-.2.8-.8 1.5-1.5 1.8.7-.1 1.3-.2 2-.5-.5.7-1.1 1.2-1.7 1.7 0 1.1-.1 2.2-.5 3.3-.7 2.2-2.2 4-4.1 5.1-3.4 1.9-7.4 1.9-10.7 0 1.8.2 3.7-.3 5.1-1.4-1.4 0-2.7-.9-3.2-2.3.5.1 1 .1 1.5-.1C1.9 7.5.7 6.2.7 4.6c.5.2 1 .4 1.5.4C.7 4.1.2 2.1 1.1.6 3 2.7 5.6 3.9 8.4 4z"/></svg><svg id="website" viewBox="-2 -2 18 18" width="18" height="18" x="116" y="96" xmlns="http://www.w3.org/2000/svg"><style>.kst0{fill:#f62425}</style><path class="kst0" d="M4.6 14c-1.2 0-2.4-.5-3.2-1.4A4.1 4.1 0 0 1 0 9.5C.2 7 2.2 5 4.7 4.8h.2c1 0 2 .4 2.8.9.5.3 1.1.5 1.6.6.5 0 1-.3 1.4-.7.4-.4.6-.9.5-1.4-.1-.5-.4-.9-.8-1.1-.3-.2-.7-.3-1-.3-.7 0-1.3.4-1.7.9-.2.3-.6.5-1 .5-.6 0-1.1-.4-1.3-.9-.1-.3 0-.6.1-.9C6 1.4 7 .6 8.2.2c1.6-.5 3.3 0 4.5 1.2.8.8 1.3 1.9 1.3 3.1C13.8 7 11.8 9 9.3 9.2h-.1c-1 0-2-.4-2.8-.9-.6-.4-1.1-.6-1.7-.6-.5 0-1 .3-1.4.7-.4.4-.6.9-.5 1.4.1.5.4.9.8 1.1.3.2.7.3 1 .3.7-.1 1.3-.4 1.7-.9.2-.3.6-.5 1-.5.6 0 1.1.4 1.3.9.1.3 0 .6-.1.9-.5 1-1.5 1.8-2.7 2.2-.4.1-.8.2-1.2.2z"/></svg></svg>