<?xml version="1.0" standalone="no"?>
<!DOCTYPE svg PUBLIC "-//W3C//DTD SVG 20010904//EN"
 "http://www.w3.org/TR/2001/REC-SVG-20010904/DTD/svg10.dtd">
<svg version="1.0" xmlns="http://www.w3.org/2000/svg"
 width="260.000000pt" height="260.000000pt" viewBox="0 0 260.000000 260.000000"
 preserveAspectRatio="xMidYMid meet">
<metadata>
Created by potrace 1.11, written by Peter Selinger 2001-2013
</metadata>
<g transform="translate(0.000000,260.000000) scale(0.100000,-0.100000)"
fill="#000000" stroke="none">
<path d="M1200 2505 c-8 -20 -69 -167 -230 -560 -45 -110 -97 -236 -115 -280
-31 -76 -325 -794 -455 -1110 -33 -82 -67 -163 -74 -180 -7 -16 -35 -84 -61
-150 -26 -66 -52 -125 -57 -132 -15 -19 2 -21 132 -22 l125 0 53 137 c29 75
94 242 144 370 l92 232 338 0 338 0 0 95 0 95 -300 0 c-165 0 -300 3 -300 6 0
5 69 185 155 404 153 390 425 1101 425 1112 0 2 -46 4 -101 4 -92 -1 -102 -3
-109 -21z"/>
</g>
</svg>
